<svg xmlns="http://www.w3.org/2000/svg" version="1.1" xmlns:xlink="http://www.w3.org/1999/xlink" xmlns:svgjs="http://svgjs.dev/svgjs" width="2000" height="464" viewBox="0 0 2000 464"><g transform="matrix(1,0,0,1,-1.2121212121210192,-18.55832345164447)"><svg viewBox="0 0 396 92" data-background-color="#ffffff" preserveAspectRatio="xMidYMid meet" height="464" width="2000" xmlns="http://www.w3.org/2000/svg" xmlns:xlink="http://www.w3.org/1999/xlink"><g id="tight-bounds" transform="matrix(1,0,0,1,0.23999999999995225,3.679667580929504)"><svg viewBox="0 0 395.52 88.14144327603286" height="88.14144327603286" width="395.52"><g><svg viewBox="0 0 570.3822461603902 127.10941139664806" height="88.14144327603286" width="395.52"><g transform="matrix(1,0,0,1,174.86224616039027,17.567219664804476)"><svg viewBox="0 0 395.52 91.9749720670391" height="91.9749720670391" width="395.52"><g id="textblocktransform"><svg viewBox="0 0 395.52 91.9749720670391" height="91.9749720670391" width="395.52" id="textblock"><g><svg viewBox="0 0 395.52 91.9749720670391" height="91.9749720670391" width="395.52"><g transform="matrix(1,0,0,1,0,0)"><svg width="395.52" viewBox="3.55 -38.5 213.72999999999996 49.949999999999996" height="91.9749720670391" data-palette-color="#252422"><g class="wordmark-text-0" data-fill-palette-color="primary" id="text-0"><path d="M25.4-34.5L32.3-35Q32.15-33.4 32.08-31.73 32-30.05 31.98-28.03 31.95-26 31.93-23.5 31.9-21 31.9-17.8L31.9-17.8Q31.9-14.8 31.9-12.38 31.9-9.95 31.93-7.85 31.95-5.75 31.98-3.85 32-1.95 32.05 0L32.05 0 22 0.6Q18.65-6.1 15.53-13.68 12.4-21.25 10-29L10-29Q10-28.05 9.98-26.73 9.95-25.4 9.95-23.9 9.95-22.4 9.95-20.83 9.95-19.25 9.95-17.8L9.95-17.8Q9.95-14.8 10-12.38 10.05-9.95 10.1-7.85 10.15-5.75 10.23-3.85 10.3-1.95 10.35 0L10.35 0 3.55 0Q3.6-2.4 3.68-4.23 3.75-6.05 3.8-8.03 3.85-10 3.9-12.55 3.95-15.1 3.95-18.95L3.95-18.95Q3.95-22.8 3.9-26.63 3.85-30.45 3.7-34.5L3.7-34.5 14.75-35.6Q16.3-29.05 18.98-21.25 21.65-13.45 25.7-4.45L25.7-4.45Q25.8-6.85 25.85-10.45 25.9-14.05 25.9-18.95L25.9-18.95Q25.9-22.8 25.73-26.63 25.55-30.45 25.4-34.5L25.4-34.5ZM44.05 0.6L44.05 0.6Q40.9 0.6 38.97-1.55 37.05-3.7 37.05-7.15L37.05-7.15Q37.05-10.75 39.15-12.9 41.25-15.05 44.75-15.05L44.75-15.05Q46.2-15.05 47.65-14.65 49.1-14.25 50.25-13.5L50.25-13.5 50.25-16.3Q50.25-18.65 49.35-19.6 48.45-20.55 46.25-20.55L46.25-20.55Q44.75-20.55 43.07-20.18 41.4-19.8 40.4-19.25L40.4-19.25 38.85-24.05Q39.6-24.35 40.65-24.65 41.7-24.95 42.9-25.15 44.1-25.35 45.35-25.48 46.6-25.6 47.65-25.6L47.65-25.6Q56.45-25.6 56.45-17L56.45-17Q56.45-16.25 56.37-14.8 56.3-13.35 56.22-11.78 56.15-10.2 56.07-8.85 56-7.5 56-6.95L56-6.95Q56-5.8 56.35-5.3 56.7-4.8 57.65-4.8L57.65-4.8Q58.3-4.8 59.15-5L59.15-5 58.35-0.2Q57.55 0.05 56.87 0.2 56.2 0.35 55.5 0.35L55.5 0.35Q53.65 0.35 52.4-0.68 51.15-1.7 50.9-3.6L50.9-3.6Q49.9-1.65 48.1-0.53 46.3 0.6 44.05 0.6ZM46.45-4L46.45-4Q48.05-4 49.17-5.15 50.3-6.3 50.3-8.05L50.3-8.05Q50.3-9.55 49.4-10.45 48.5-11.35 46.9-11.35L46.9-11.35Q45.25-11.35 44.3-10.35 43.35-9.35 43.35-7.6L43.35-7.6Q43.35-5.95 44.17-4.98 45-4 46.45-4ZM77.7-25L84.15-25.6Q82.7-20.4 81.12-15.68 79.55-10.95 77.82-6.5 76.1-2.05 74.22 2.25 72.35 6.55 70.3 10.85L70.3 10.85 63.4 11.45Q65.35 8.4 66.95 5.45 68.55 2.5 69.9-0.4L69.9-0.4Q66.9-6.05 64.67-12.05 62.45-18.05 60.7-25L60.7-25 67.15-25.6Q67.7-23 68.3-20.28 68.9-17.55 69.57-15.05 70.25-12.55 71.02-10.38 71.8-8.2 72.7-6.65L72.7-6.65Q74.45-11.65 75.52-16.13 76.6-20.6 77.7-25L77.7-25ZM93.14 0.6L93.14 0.6Q89.99 0.6 88.07-1.55 86.14-3.7 86.14-7.15L86.14-7.15Q86.14-10.75 88.24-12.9 90.34-15.05 93.84-15.05L93.84-15.05Q95.29-15.05 96.74-14.65 98.19-14.25 99.34-13.5L99.34-13.5 99.34-16.3Q99.34-18.65 98.44-19.6 97.54-20.55 95.34-20.55L95.34-20.55Q93.84-20.55 92.17-20.18 90.49-19.8 89.49-19.25L89.49-19.25 87.94-24.05Q88.69-24.35 89.74-24.65 90.79-24.95 91.99-25.15 93.19-25.35 94.44-25.48 95.69-25.6 96.74-25.6L96.74-25.6Q105.54-25.6 105.54-17L105.54-17Q105.54-16.25 105.47-14.8 105.39-13.35 105.32-11.78 105.24-10.2 105.17-8.85 105.09-7.5 105.09-6.95L105.09-6.95Q105.09-5.8 105.44-5.3 105.79-4.8 106.74-4.8L106.74-4.8Q107.39-4.8 108.24-5L108.24-5 107.44-0.2Q106.64 0.05 105.97 0.2 105.29 0.35 104.59 0.35L104.59 0.35Q102.74 0.35 101.49-0.68 100.24-1.7 99.99-3.6L99.99-3.6Q98.99-1.65 97.19-0.53 95.39 0.6 93.14 0.6ZM95.54-4L95.54-4Q97.14-4 98.27-5.15 99.39-6.3 99.39-8.05L99.39-8.05Q99.39-9.55 98.49-10.45 97.59-11.35 95.99-11.35L95.99-11.35Q94.34-11.35 93.39-10.35 92.44-9.35 92.44-7.6L92.44-7.6Q92.44-5.95 93.27-4.98 94.09-4 95.54-4ZM111.99-38L118.84-38.5Q118.69-36.85 118.62-35.13 118.54-33.4 118.52-31.35 118.49-29.3 118.47-26.85 118.44-24.4 118.44-21.3L118.44-21.3Q119.19-22.1 120.09-22.88 120.99-23.65 122.02-24.25 123.04-24.85 124.19-25.23 125.34-25.6 126.59-25.6L126.59-25.6Q127.84-25.6 129.02-25.15 130.19-24.7 131.09-23.65 131.99-22.6 132.54-20.8 133.09-19 133.09-16.3L133.09-16.3Q133.09-15.6 133.06-14.25 133.04-12.9 132.99-11.38 132.94-9.85 132.92-8.45 132.89-7.05 132.89-6.3L132.89-6.3Q132.89-4.65 133.12-3.13 133.34-1.6 133.89-0.6L133.89-0.6 126.94 0.6Q126.59-0.55 126.52-1.9 126.44-3.25 126.44-4.25L126.44-4.25Q126.44-5.65 126.52-7.13 126.59-8.6 126.67-9.98 126.74-11.35 126.82-12.58 126.89-13.8 126.89-14.7L126.89-14.7Q126.89-17.65 125.89-18.75 124.89-19.85 123.14-19.85L123.14-19.85Q121.69-19.85 120.52-19.38 119.34-18.9 118.44-18.2L118.44-18.2Q118.44-15.25 118.44-12.8 118.44-10.35 118.47-8.18 118.49-6 118.52-4 118.54-2 118.59 0L118.59 0 111.84 0Q111.89-2.6 111.97-4.6 112.04-6.6 112.09-8.78 112.14-10.95 112.19-13.73 112.24-16.5 112.24-20.7L112.24-20.7Q112.24-24.95 112.19-29.23 112.14-33.5 111.99-38L111.99-38ZM138.69-25L145.54-25Q145.39-23.85 145.31-22.8 145.24-21.75 145.21-20.48 145.19-19.2 145.16-17.53 145.14-15.85 145.14-13.55L145.14-13.55Q145.14-11.25 145.14-9.4 145.14-7.55 145.16-5.95 145.19-4.35 145.21-2.93 145.24-1.5 145.29 0L145.29 0 138.54 0Q138.59-1.85 138.66-3.25 138.74-4.65 138.79-6.23 138.84-7.8 138.89-9.78 138.94-11.75 138.94-14.7L138.94-14.7Q138.94-17.4 138.89-19.78 138.84-22.15 138.69-25L138.69-25ZM138.54-33.15L138.54-33.15Q138.54-34.55 139.51-35.58 140.49-36.6 142.19-36.6L142.19-36.6Q143.64-36.6 144.71-35.75 145.79-34.9 145.79-33.45L145.79-33.45Q145.79-32.05 144.76-31.1 143.74-30.15 142.04-30.15L142.04-30.15Q140.59-30.15 139.56-30.93 138.54-31.7 138.54-33.15Z" fill="#252422" data-fill-palette-color="primary"></path><path d="M159.39-38L166.24-38.5Q166.09-36.85 166.01-35.13 165.94-33.4 165.91-31.35 165.89-29.3 165.86-26.85 165.84-24.4 165.84-21.3L165.84-21.3Q166.59-22.1 167.49-22.88 168.39-23.65 169.41-24.25 170.44-24.85 171.59-25.23 172.74-25.6 173.99-25.6L173.99-25.6Q175.24-25.6 176.41-25.15 177.59-24.7 178.49-23.65 179.39-22.6 179.94-20.8 180.49-19 180.49-16.3L180.49-16.3Q180.49-15.6 180.46-14.25 180.44-12.9 180.39-11.38 180.34-9.85 180.31-8.45 180.29-7.05 180.29-6.3L180.29-6.3Q180.29-4.65 180.51-3.13 180.74-1.6 181.29-0.6L181.29-0.6 174.34 0.6Q173.99-0.55 173.91-1.9 173.84-3.25 173.84-4.25L173.84-4.25Q173.84-5.65 173.91-7.13 173.99-8.6 174.06-9.98 174.14-11.35 174.21-12.58 174.29-13.8 174.29-14.7L174.29-14.7Q174.29-17.65 173.29-18.75 172.29-19.85 170.54-19.85L170.54-19.85Q169.09-19.85 167.91-19.38 166.74-18.9 165.84-18.2L165.84-18.2Q165.84-15.25 165.84-12.8 165.84-10.35 165.86-8.18 165.89-6 165.91-4 165.94-2 165.99 0L165.99 0 159.24 0Q159.29-2.6 159.36-4.6 159.44-6.6 159.49-8.78 159.54-10.95 159.59-13.73 159.64-16.5 159.64-20.7L159.64-20.7Q159.64-24.95 159.59-29.23 159.54-33.5 159.39-38L159.39-38ZM191.29 0.6L191.29 0.6Q188.14 0.6 186.21-1.55 184.29-3.7 184.29-7.15L184.29-7.15Q184.29-10.75 186.39-12.9 188.49-15.05 191.99-15.05L191.99-15.05Q193.44-15.05 194.89-14.65 196.34-14.25 197.49-13.5L197.49-13.5 197.49-16.3Q197.49-18.65 196.59-19.6 195.69-20.55 193.49-20.55L193.49-20.55Q191.99-20.55 190.31-20.18 188.64-19.8 187.64-19.25L187.64-19.25 186.09-24.05Q186.84-24.35 187.89-24.65 188.94-24.95 190.14-25.15 191.34-25.35 192.59-25.48 193.84-25.6 194.89-25.6L194.89-25.6Q203.69-25.6 203.69-17L203.69-17Q203.69-16.25 203.61-14.8 203.54-13.35 203.46-11.78 203.39-10.2 203.31-8.85 203.24-7.5 203.24-6.95L203.24-6.95Q203.24-5.8 203.59-5.3 203.94-4.8 204.89-4.8L204.89-4.8Q205.54-4.8 206.39-5L206.39-5 205.59-0.2Q204.79 0.05 204.11 0.2 203.44 0.35 202.74 0.35L202.74 0.35Q200.89 0.35 199.64-0.68 198.39-1.7 198.14-3.6L198.14-3.6Q197.14-1.65 195.34-0.53 193.54 0.6 191.29 0.6ZM193.69-4L193.69-4Q195.29-4 196.41-5.15 197.54-6.3 197.54-8.05L197.54-8.05Q197.54-9.55 196.64-10.45 195.74-11.35 194.14-11.35L194.14-11.35Q192.49-11.35 191.54-10.35 190.59-9.35 190.59-7.6L190.59-7.6Q190.59-5.95 191.41-4.98 192.24-4 193.69-4ZM210.18-25L217.03-25Q216.88-23.85 216.81-22.8 216.73-21.75 216.71-20.48 216.68-19.2 216.66-17.53 216.63-15.85 216.63-13.55L216.63-13.55Q216.63-11.25 216.63-9.4 216.63-7.55 216.66-5.95 216.68-4.35 216.71-2.93 216.73-1.5 216.78 0L216.78 0 210.03 0Q210.08-1.85 210.16-3.25 210.23-4.65 210.28-6.23 210.33-7.8 210.38-9.78 210.43-11.75 210.43-14.7L210.43-14.7Q210.43-17.4 210.38-19.78 210.33-22.15 210.18-25L210.18-25ZM210.03-33.15L210.03-33.15Q210.03-34.55 211.01-35.58 211.98-36.6 213.68-36.6L213.68-36.6Q215.13-36.6 216.21-35.75 217.28-34.9 217.28-33.45L217.28-33.45Q217.28-32.05 216.26-31.1 215.23-30.15 213.53-30.15L213.53-30.15Q212.08-30.15 211.06-30.93 210.03-31.7 210.03-33.15Z" fill="#eb5e28" data-fill-palette-color="accent"></path></g></svg></g></svg></g></svg></g></svg></g><g><svg viewBox="0 0 153.14916265469193 127.10941139664806" height="127.10941139664806" width="153.14916265469193"><g><svg xmlns="http://www.w3.org/2000/svg" xmlns:xlink="http://www.w3.org/1999/xlink" version="1.1" x="0" y="0" viewBox="5.001 12.65299982489733 89.99842514597569 74.69611095898335" enable-background="new 0 0 100 100" xml:space="preserve" height="127.10941139664806" width="153.14916265469193" class="icon-icon-0" data-fill-palette-color="accent" id="icon-0"><g fill="#eb5e28" data-fill-palette-color="accent"><path fill="#eb5e28" d="M92.754 60.094V59.878H94.942L93.039 34.048C93.039 30.773 90.197 28.118 86.691 28.118H86.375C82.869 28.118 80.029 30.772 80.029 34.048L79.794 37.231 69.099 49.741A3.058 3.058 0 1 0 73.747 53.715L79.033 47.53 78.124 59.878H80.312V60.094L78.079 84.005A3.059 3.059 0 0 0 84.169 84.575L86.33 61.428H86.736L88.897 84.575A3.056 3.056 0 0 0 92.225 87.335 3.057 3.057 0 0 0 94.986 84.005z" data-fill-palette-color="accent"></path><circle fill="#eb5e28" cx="86.043" cy="19.363" r="6.7" data-fill-palette-color="accent"></circle><circle fill="#eb5e28" cx="48.829" cy="83.474" r="3.9" data-fill-palette-color="accent"></circle><circle fill="#eb5e28" cx="64.491" cy="83.474" r="3.9" data-fill-palette-color="accent"></circle><path fill="#eb5e28" d="M75.211 59.021C75.198 58.945 75.187 58.871 75.168 58.796A3 3 0 0 0 75.095 58.563 3 3 0 0 0 75.006 58.339 2.5 2.5 0 0 0 74.764 57.93C74.717 57.864 74.663 57.804 74.611 57.742A3 3 0 0 0 74.45 57.575C74.39 57.519 74.327 57.47 74.262 57.419 74.197 57.371 74.132 57.323 74.062 57.28A3 3 0 0 0 73.614 57.063C73.581 57.052 73.552 57.033 73.518 57.023 73.479 57.009 73.438 57.008 73.398 56.997A2.6 2.6 0 0 0 72.889 56.917C72.845 56.914 72.803 56.904 72.759 56.904H45.141L44.217 51.48C44.214 51.466 44.209 51.457 44.205 51.443 44.187 51.342 44.155 51.249 44.126 51.153 44.106 51.09 44.092 51.026 44.067 50.967 44.03 50.873 43.98 50.787 43.931 50.699 43.902 50.645 43.878 50.589 43.844 50.538A2.4 2.4 0 0 0 43.641 50.281C43.609 50.244 43.581 50.203 43.547 50.168A2.5 2.5 0 0 0 43.266 49.926C43.239 49.905 43.216 49.881 43.187 49.861A3 3 0 0 0 42.868 49.678C42.834 49.661 42.803 49.64 42.77 49.625 42.675 49.583 42.574 49.554 42.474 49.524 42.415 49.506 42.361 49.483 42.302 49.47 42.222 49.452 42.14 49.448 42.057 49.438 41.971 49.427 41.888 49.414 41.803 49.412 41.788 49.412 41.775 49.408 41.762 49.408H36.115L25.707 37.23 25.472 34.047C25.472 30.772 22.631 28.117 19.126 28.117H18.809C15.304 28.117 12.463 30.771 12.463 34.047L12.228 37.24 11.468 47.541 8.896 68.178H12.745V68.396L10.513 84.005A3.057 3.057 0 0 0 16.602 84.577L18.765 69.726H19.17L21.331 84.577A3.06 3.06 0 0 0 27.422 84.005L25.188 68.394V68.178H29.036L26.465 47.53 31.751 53.715A3.05 3.05 0 0 0 34.077 54.787C34.622 54.787 35.167 54.637 35.654 54.343 35.8 54.369 35.949 54.388 36.103 54.388H39.661L43.457 76.66C43.458 76.675 43.465 76.686 43.467 76.701 43.48 76.769 43.503 76.834 43.521 76.902 43.545 76.988 43.568 77.074 43.6 77.155 43.624 77.217 43.654 77.275 43.683 77.333 43.724 77.414 43.764 77.494 43.811 77.57A2.7 2.7 0 0 0 44.225 78.066C44.289 78.126 44.359 78.18 44.431 78.234A2.2 2.2 0 0 0 44.825 78.472C44.882 78.499 44.935 78.529 44.993 78.553 45.089 78.59 45.189 78.618 45.288 78.644 45.338 78.657 45.384 78.675 45.434 78.685 45.588 78.714 45.746 78.732 45.908 78.732H67.353L67.363 78.733C67.518 78.733 67.669 78.714 67.82 78.686L67.955 78.654A2.4 2.4 0 0 0 68.397 78.501C68.491 78.457 68.58 78.407 68.668 78.354 68.705 78.332 68.744 78.31 68.78 78.286 68.901 78.202 69.014 78.109 69.12 78.006 69.128 77.998 69.133 77.99 69.14 77.984 69.236 77.886 69.322 77.781 69.401 77.668 69.428 77.629 69.452 77.587 69.476 77.547A2.5 2.5 0 0 0 69.686 77.12C69.701 77.081 69.722 77.044 69.735 77.002L75.13 60.153C75.144 60.111 75.145 60.07 75.156 60.03 75.177 59.947 75.196 59.863 75.21 59.777 75.223 59.689 75.231 59.603 75.235 59.516 75.237 59.473 75.249 59.435 75.249 59.392 75.249 59.359 75.239 59.326 75.237 59.29A2 2 0 0 0 75.211 59.021" data-fill-palette-color="accent"></path><path fill="#eb5e28" d="M13.042 17.389A6.71 6.71 0 0 0 19.457 26.074 6.71 6.71 0 1 0 19.457 12.653 6.69 6.69 0 0 0 14.114 15.315C13.086 14.57 10.951 13.52 9.064 15.832 9.064 15.832 7.494 17.827 5.001 16.054 5.001 16.054 5.597 19.648 9.094 18.91 9.093 18.909 11.286 18.47 13.042 17.389" data-fill-palette-color="accent"></path></g></svg></g></svg></g></svg></g><defs></defs></svg><rect width="395.52" height="88.14144327603286" fill="none" stroke="none" visibility="hidden"></rect></g></svg></g></svg>